<?xml version="1.0" encoding="UTF-8"?>
<svg id="Layer_2" data-name="Layer 2" xmlns="http://www.w3.org/2000/svg" viewBox="0 0 148.28 148.54">
  <rect width="148.28" height="148.54" fill="#050505"/>
  <g id="Layer_1-2" data-name="Layer 1">
    <path fill="#ff3c01" d="M146.68,67.67c-.65-.78-1.46-1.43-2.37-1.85-.36-.16-.72-.29-1.04-.46-.03,0-.07-.03-.1-.03-9.53-3.9-18.37-9.1-26.34-15.38-6.83-5.43-13.01-11.61-18.44-18.44-6.28-7.97-11.48-16.81-15.38-26.34-.03-.03-.03-.07-.03-.07-.16-.36-.29-.72-.46-1.07,0-.1-.06-.16-.1-.23-.46-.85-1.04-1.56-1.76-2.15-1.27-1.04-2.89-1.66-4.62-1.66h-3.93c-1.72,0-3.35.62-4.58,1.66-.68.55-1.24,1.2-1.69,1.95-.03.06-.07.13-.1.2-.19.52-.39,1.04-.62,1.53-3.9,9.46-9.1,18.24-15.32,26.18-5.43,6.83-11.64,13.04-18.47,18.47-7.97,6.24-16.81,11.45-26.34,15.38-.29.1-.55.2-.81.33h-.03c-1.01.46-1.89,1.14-2.57,1.98-.98,1.2-1.59,2.76-1.59,4.45v4.23c0,1.69.62,3.25,1.59,4.45.68.85,1.56,1.53,2.57,1.98.26.13.55.23.85.33,9.53,3.93,18.37,9.14,26.34,15.38,6.83,5.43,13.04,11.64,18.47,18.47,6.21,7.9,11.38,16.68,15.32,26.11.23.59.49,1.2.72,1.79v.03c.46.75,1.01,1.43,1.69,1.98,1.27,1.04,2.89,1.66,4.62,1.66h3.9c1.72,0,3.35-.62,4.62-1.66.72-.62,1.3-1.33,1.76-2.18v-.03c.19-.42.36-.85.55-1.27,0-.03.03-.1.03-.13,3.93-9.49,9.14-18.34,15.38-26.31,5.43-6.83,11.61-13.01,18.44-18.44,7.97-6.28,16.81-11.48,26.34-15.38.03,0,.07-.03.1-.03.33-.16.68-.29,1.04-.46.91-.42,1.72-1.07,2.37-1.85.98-1.24,1.59-2.8,1.59-4.49v-4.16c0-1.69-.62-3.25-1.59-4.49ZM67.54,108.2c0,4.84-3.92,8.76-8.76,8.76h0c-1.53,0-3-.61-4.09-1.69l-20.74-20.74c-.78-.52-1.46-1.2-2.02-2.02-.23-.33-.42-.68-.59-1.07-.42-.94-.68-2.02-.68-3.12s.26-2.18.68-3.12c1.17-2.6,3.77-4.39,6.83-4.39h20.6c4.84,0,8.76,3.92,8.76,8.76v18.64ZM67.54,58.91c0,4.84-3.92,8.76-8.76,8.76h-20.6c-3.06,0-5.66-1.79-6.83-4.39-.42-.94-.68-2.02-.68-3.12s.26-2.18.68-3.12c.16-.39.36-.75.59-1.07.55-.81,1.24-1.5,2.02-2.02l20.74-20.74c1.08-1.08,2.55-1.69,4.09-1.69h0c4.84,0,8.76,3.92,8.76,8.76v18.64ZM116.83,91.24c-.26.62-.62,1.2-1.01,1.72l-.1.13-1.01,1.01-.13.1-21.07,21.07c-1.08,1.08-2.55,1.69-4.09,1.69h0c-4.84,0-8.76-3.92-8.76-8.76v-18.64c0-4.84,3.92-8.76,8.76-8.76h20.47c3.12,0,5.79,1.89,6.93,4.58.36.88.59,1.89.59,2.93s-.23,2.05-.59,2.93ZM116.83,63.08c-1.14,2.7-3.8,4.58-6.93,4.58h-20.47c-4.84,0-8.76-3.92-8.76-8.76v-18.64c0-4.84,3.92-8.76,8.76-8.76h0c1.53,0,3,.61,4.09,1.69l21.07,21.07c.42.36.85.78,1.24,1.24.39.52.75,1.11,1.01,1.72.36.88.59,1.89.59,2.93s-.23,2.05-.59,2.93Z"/>
  </g>
</svg>
